<?xml version="1.0" encoding="utf-8"?>
<!-- Generator: Adobe Illustrator 21.0.0, SVG Export Plug-In . SVG Version: 6.00 Build 0)  -->
<!DOCTYPE svg PUBLIC "-//W3C//DTD SVG 1.1//EN" "http://www.w3.org/Graphics/SVG/1.1/DTD/svg11.dtd">
<svg version="1.1" id="Capa_1" xmlns="http://www.w3.org/2000/svg" xmlns:xlink="http://www.w3.org/1999/xlink" x="0px" y="0px"
	 viewBox="0 0 516.4 516.4" style="enable-background:new 0 0 516.4 516.4;" xml:space="preserve">
<style type="text/css">
	.st0{fill:#3DBEAF;}
</style>
<g>
	<g>
		<rect x="133.9" y="420.8" class="st0" width="248.6" height="17.1"/>
		<rect x="133.9" y="133.9" class="st0" width="133.9" height="17.1"/>
		<rect x="133.9" y="363.4" class="st0" width="248.6" height="17.1"/>
		<rect x="133.9" y="76.5" class="st0" width="133.9" height="17.1"/>
		<path class="st0" d="M325.1,0h-9.6H114.8c-21,0-38.2,17.2-38.2,38.2v439.9c0,21,17.2,38.2,38.2,38.2h286.9
			c21,0,38.2-17.2,38.2-38.2V143.4v-9.6L325.1,0z M325.1,28.7L415,133.9h-70.8c-9.6,0-17.1-9.6-17.1-17.1V28.7z M420.8,478.1
			c0,9.6-7.6,17.1-17.1,17.1H114.8c-9.6,0-17.1-7.6-17.1-17.1V38.2c0-9.6,7.7-17.1,17.1-17.1H306v95.6c0,21,17.2,38.2,38.2,38.2
			h76.5V478.1z"/>
		<rect x="133.9" y="306" class="st0" width="248.6" height="17.1"/>
		<rect x="133.9" y="191.2" class="st0" width="248.6" height="17.1"/>
		<rect x="133.9" y="248.6" class="st0" width="248.6" height="17.1"/>
	</g>
</g>
</svg>
